<svg xmlns="http://www.w3.org/2000/svg" xmlns:xlink="http://www.w3.org/1999/xlink" width="166" height="339" viewBox="0 0 166 339">
  <defs>
    <clipPath id="clip-path">
      <rect width="166" height="339" fill="none"/>
    </clipPath>
  </defs>
  <g id="Repeat_Grid_1" data-name="Repeat Grid 1" clip-path="url(#clip-path)">
    <g transform="translate(-84 -1363)">
      <circle id="Ellipse_13" data-name="Ellipse 13" cx="11.5" cy="11.5" r="11.5" transform="translate(84 1363)" fill="#24ce37"/>
    </g>
    <g transform="translate(-41 -1363)">
      <circle id="Ellipse_13-2" data-name="Ellipse 13" cx="11.5" cy="11.5" r="11.5" transform="translate(84 1363)" fill="#24ce37"/>
    </g>
    <g transform="translate(2 -1363)">
      <circle id="Ellipse_13-3" data-name="Ellipse 13" cx="11.5" cy="11.5" r="11.5" transform="translate(84 1363)" fill="#24ce37"/>
    </g>
    <g transform="translate(45 -1363)">
      <circle id="Ellipse_13-4" data-name="Ellipse 13" cx="11.5" cy="11.5" r="11.5" transform="translate(84 1363)" fill="#24ce37"/>
    </g>
    <g transform="translate(-84 -1320)">
      <circle id="Ellipse_13-5" data-name="Ellipse 13" cx="11.5" cy="11.5" r="11.5" transform="translate(84 1363)" fill="#24ce37"/>
    </g>
    <g transform="translate(-41 -1320)">
      <circle id="Ellipse_13-6" data-name="Ellipse 13" cx="11.5" cy="11.5" r="11.5" transform="translate(84 1363)" fill="#24ce37"/>
    </g>
    <g transform="translate(2 -1320)">
      <circle id="Ellipse_13-7" data-name="Ellipse 13" cx="11.5" cy="11.5" r="11.5" transform="translate(84 1363)" fill="#24ce37"/>
    </g>
    <g transform="translate(45 -1320)">
      <circle id="Ellipse_13-8" data-name="Ellipse 13" cx="11.5" cy="11.5" r="11.5" transform="translate(84 1363)" fill="#24ce37"/>
    </g>
    <g transform="translate(-84 -1277)">
      <circle id="Ellipse_13-9" data-name="Ellipse 13" cx="11.5" cy="11.5" r="11.5" transform="translate(84 1363)" fill="#24ce37"/>
    </g>
    <g transform="translate(-41 -1277)">
      <circle id="Ellipse_13-10" data-name="Ellipse 13" cx="11.5" cy="11.5" r="11.5" transform="translate(84 1363)" fill="#24ce37"/>
    </g>
    <g transform="translate(2 -1277)">
      <circle id="Ellipse_13-11" data-name="Ellipse 13" cx="11.5" cy="11.5" r="11.5" transform="translate(84 1363)" fill="#24ce37"/>
    </g>
    <g transform="translate(45 -1277)">
      <circle id="Ellipse_13-12" data-name="Ellipse 13" cx="11.5" cy="11.5" r="11.5" transform="translate(84 1363)" fill="#24ce37"/>
    </g>
    <g transform="translate(-84 -1234)">
      <circle id="Ellipse_13-13" data-name="Ellipse 13" cx="11.5" cy="11.5" r="11.5" transform="translate(84 1363)" fill="#24ce37"/>
    </g>
    <g transform="translate(-41 -1234)">
      <circle id="Ellipse_13-14" data-name="Ellipse 13" cx="11.5" cy="11.5" r="11.5" transform="translate(84 1363)" fill="#24ce37"/>
    </g>
    <g transform="translate(2 -1234)">
      <circle id="Ellipse_13-15" data-name="Ellipse 13" cx="11.5" cy="11.5" r="11.5" transform="translate(84 1363)" fill="#24ce37"/>
    </g>
    <g transform="translate(45 -1234)">
      <circle id="Ellipse_13-16" data-name="Ellipse 13" cx="11.5" cy="11.5" r="11.5" transform="translate(84 1363)" fill="#24ce37"/>
    </g>
    <g transform="translate(-84 -1191)">
      <circle id="Ellipse_13-17" data-name="Ellipse 13" cx="11.5" cy="11.5" r="11.5" transform="translate(84 1363)" fill="#24ce37"/>
    </g>
    <g transform="translate(-41 -1191)">
      <circle id="Ellipse_13-18" data-name="Ellipse 13" cx="11.5" cy="11.5" r="11.5" transform="translate(84 1363)" fill="#24ce37"/>
    </g>
    <g transform="translate(2 -1191)">
      <circle id="Ellipse_13-19" data-name="Ellipse 13" cx="11.5" cy="11.5" r="11.5" transform="translate(84 1363)" fill="#24ce37"/>
    </g>
    <g transform="translate(45 -1191)">
      <circle id="Ellipse_13-20" data-name="Ellipse 13" cx="11.5" cy="11.5" r="11.5" transform="translate(84 1363)" fill="#24ce37"/>
    </g>
    <g transform="translate(-84 -1148)">
      <circle id="Ellipse_13-21" data-name="Ellipse 13" cx="11.5" cy="11.5" r="11.5" transform="translate(84 1363)" fill="#24ce37"/>
    </g>
    <g transform="translate(-41 -1148)">
      <circle id="Ellipse_13-22" data-name="Ellipse 13" cx="11.5" cy="11.5" r="11.5" transform="translate(84 1363)" fill="#24ce37"/>
    </g>
    <g transform="translate(2 -1148)">
      <circle id="Ellipse_13-23" data-name="Ellipse 13" cx="11.5" cy="11.5" r="11.5" transform="translate(84 1363)" fill="#24ce37"/>
    </g>
    <g transform="translate(45 -1148)">
      <circle id="Ellipse_13-24" data-name="Ellipse 13" cx="11.5" cy="11.5" r="11.5" transform="translate(84 1363)" fill="#24ce37"/>
    </g>
    <g transform="translate(-84 -1105)">
      <circle id="Ellipse_13-25" data-name="Ellipse 13" cx="11.5" cy="11.5" r="11.5" transform="translate(84 1363)" fill="#24ce37"/>
    </g>
    <g transform="translate(-41 -1105)">
      <circle id="Ellipse_13-26" data-name="Ellipse 13" cx="11.5" cy="11.5" r="11.5" transform="translate(84 1363)" fill="#24ce37"/>
    </g>
    <g transform="translate(2 -1105)">
      <circle id="Ellipse_13-27" data-name="Ellipse 13" cx="11.5" cy="11.5" r="11.5" transform="translate(84 1363)" fill="#24ce37"/>
    </g>
    <g transform="translate(45 -1105)">
      <circle id="Ellipse_13-28" data-name="Ellipse 13" cx="11.5" cy="11.5" r="11.5" transform="translate(84 1363)" fill="#24ce37"/>
    </g>
    <g transform="translate(-84 -1062)">
      <circle id="Ellipse_13-29" data-name="Ellipse 13" cx="11.5" cy="11.5" r="11.5" transform="translate(84 1363)" fill="#24ce37"/>
    </g>
    <g transform="translate(-41 -1062)">
      <circle id="Ellipse_13-30" data-name="Ellipse 13" cx="11.5" cy="11.5" r="11.5" transform="translate(84 1363)" fill="#24ce37"/>
    </g>
    <g transform="translate(2 -1062)">
      <circle id="Ellipse_13-31" data-name="Ellipse 13" cx="11.5" cy="11.5" r="11.5" transform="translate(84 1363)" fill="#24ce37"/>
    </g>
    <g transform="translate(45 -1062)">
      <circle id="Ellipse_13-32" data-name="Ellipse 13" cx="11.5" cy="11.5" r="11.5" transform="translate(84 1363)" fill="#24ce37"/>
    </g>
  </g>
</svg>
